<svg xmlns="http://www.w3.org/2000/svg" viewBox="0 0 800 800">
    <style>
        <!-- The official purple is #46394A, but this logo is transparent to allow the texture to be seen on the website -->
        <!-- .purple {fill:#46394A;} -->
        .purple {fill:none}
        .white  {fill:#FFFFFF;}
        .yellow {fill:#F8E64A;}
        .grey   {fill:none;stroke:#767676;stroke-width:5;stroke-miterlimit:10;}
    </style>
    <path class="purple" d="M0 0h800v800H0z"/>
    <path class="white"  d="M332.3 362.9c-4.2-8.2-10.7-14.9-19.3-20.2-8.6-5.2-18.5-7.8-29.5-7.8-5.1 0-10.2.6-15.3 1.7-5.1 1.1-9.6 3-13.6 5.5s-7.1 5.8-9.5 9.8c-2.4 4-3.6 8.6-3.6 14 0 9.3 3.8 16.5 11.5 21.4 7.6 5 19.7 9.1 36.1 12.5 23.5 4.8 40.8 11.8 52 21 11.2 9.2 16.8 21.6 16.8 37.1 0 11.3-2.2 20.9-6.6 28.6-4.4 7.8-10.1 14.1-17.2 19.1-7.1 5-15.1 8.5-24 10.6s-17.9 3.2-26.9 3.2c-15 0-29.6-3.1-43.7-9.3-14.1-6.2-25.7-16-34.8-29.3l22.9-17c5.1 8.8 12.6 16.1 22.5 22.1 9.9 5.9 20.8 8.9 32.7 8.9 6.2 0 12.2-.6 17.8-1.7 5.7-1.1 10.6-3.1 14.8-5.9 4.2-2.8 7.6-6.4 10.2-10.8 2.5-4.4 3.8-9.8 3.8-16.3 0-10.5-5-18.3-15.1-23.5-10-5.2-24.5-10.1-43.5-14.6-5.9-1.4-12.2-3.2-18.9-5.3-6.6-2.1-12.8-5.2-18.5-9.3-5.7-4.1-10.3-9.3-14-15.5-3.7-6.2-5.5-14-5.5-23.3 0-10.2 2-18.9 5.9-26.1 4-7.2 9.3-13.2 15.9-17.8 6.6-4.7 14.2-8.1 22.7-10.4 8.5-2.3 17.2-3.4 26.3-3.4 13.9 0 27.3 3.1 40.3 9.3 13 6.2 22.8 15 29.3 26.3l-22 16.4zM504.5 340h-56v115.8c0 7.4.7 13.4 2.1 18.2 1.4 4.8 3.5 8.6 6.2 11.2 2.7 2.7 5.9 4.5 9.5 5.5 3.7 1 7.6 1.5 11.9 1.5 4 0 8.1-.6 12.5-1.7s8.6-2.7 12.5-4.7l1.3 25c-5.1 2-10.4 3.5-15.9 4.5s-11.5 1.5-18 1.5c-5.4 0-11-.7-17-2.1-5.9-1.4-11.5-4.1-16.5-8.1-5.1-4-9.3-9.3-12.5-16.1-3.3-6.8-4.9-15.7-4.9-26.7V340h-41.2v-24.2h41.2v-56h28.8v56h56V340zM664.6 385.9c0-17.1-4.5-29.9-13.6-38.3-9.1-8.4-22.2-12.6-39.5-12.6-11.9 0-22.9 2.1-33.1 6.4s-18.8 9.9-25.9 17l-16.1-19.1c8.2-8.2 19-15 32.5-20.4 13.4-5.4 28.6-8.1 45.6-8.1 10.7 0 20.8 1.5 30.1 4.5s17.5 7.4 24.6 13.4c7.1 5.9 12.6 13.4 16.5 22.5 4 9.1 5.9 19.7 5.9 31.8v87c0 7.6.3 15.6.8 23.8.6 8.2 1.4 15.1 2.5 20.8H669c-.8-4.8-1.6-10-2.1-15.7-.6-5.7-.8-11.2-.8-16.5h-.8c-9.1 13.3-19.3 22.8-30.8 28.6-11.5 5.8-25.2 8.7-41.4 8.7-7.6 0-15.5-1.1-23.5-3.2-8.1-2.1-15.4-5.6-22.1-10.4-6.6-4.8-12.2-11.1-16.5-18.7-4.4-7.7-6.6-17-6.6-28.1 0-15.3 3.9-27.5 11.7-36.4 7.8-8.9 18.2-15.6 31.2-20s27.9-7.2 44.8-8.5c16.8-1.3 34.3-1.9 52.4-1.9v-6.6zm-8.4 29.2c-11.9 0-23.8.5-35.9 1.5-12 1-22.9 3-32.7 5.9-9.8 3-17.8 7.3-24 12.9-6.2 5.7-9.3 13.2-9.3 22.5 0 7.1 1.3 13 4 17.8 2.7 4.8 6.3 8.7 10.8 11.7 4.5 3 9.5 5.1 15.1 6.4s11.1 1.9 16.8 1.9c10.2 0 19.2-1.8 27.2-5.3 7.9-3.5 14.6-8.3 19.9-14.4 5.4-6.1 9.5-13.1 12.3-21 2.8-7.9 4.2-16.3 4.2-25v-14.8h-8.4z"/>
    <path class="yellow" d="M199.3 625.3h1.5l108.5-106h49.2L240 626.8l118.6 127.6h-50.2L200.8 630.8h-1.5v123.5h-34.2V374.7h34.2v250.6zM448.5 632.9l-89.9-113.5h43.7l67.3 89.4 64.3-89.4h41.2l-85.4 112 93.4 123h-44.2l-69.8-97.9-68.8 97.9h-41.2l89.4-121.5z"/>
    <path class="grey"   d="M20 19.1h759.9V779H20z"/>
</svg>
