<svg xmlns="http://www.w3.org/2000/svg" viewBox="0 0 688.9 234.5">
    <style>
        .stakx { fill: #FFFFFF; }
    </style>
    <path class="stakx" d="M0 220.8V188c8.6 6 17.4 10.9 26.4 14.6 9 3.7 16.5 5.6 22.7 5.6 6.4 0 11.8-1.6 16.4-4.7 4.6-3.1 6.9-6.9 6.9-11.2 0-4.5-1.5-8.2-4.4-11.1-3-3-9.3-7.2-19.2-12.8-19.6-10.9-32.5-20.3-38.6-28C4 132.6 1 124.2 1 115c0-11.8 4.6-21.5 13.8-29 9.2-7.5 21.1-11.2 35.6-11.2 15.1 0 30.5 4.2 46.4 12.7v30.1c-18.1-10.9-32.9-16.4-44.4-16.4-5.9 0-10.7 1.3-14.3 3.8-3.6 2.5-5.4 5.8-5.4 10 0 3.6 1.6 7 4.9 10.2 3.3 3.2 9.1 7.1 17.3 11.7l10.9 6.2c25.7 14.5 38.5 30.6 38.5 48.2 0 12.6-4.9 23-14.8 31-9.9 8.1-22.6 12.1-38.1 12.1-9.2 0-17.3-1-24.4-2.9-7.2-1.9-16.2-5.5-27-10.7zM106.8 102.3L164.1 46v31.8h48.7v27.5h-48.7v75.4c0 17.6 7.3 26.4 21.9 26.4 10.9 0 22.5-3.6 34.6-10.9v28.5c-11.7 6.6-24.5 9.9-38.3 9.9-14 0-25.6-4.1-34.8-12.2-2.9-2.5-5.3-5.2-7.2-8.3-1.9-3.1-3.5-7.1-4.8-12.1-1.3-5-1.9-14.4-1.9-28.4v-68.3h-26.8v-3zM340.3 139.3v65.4c0 5.2 1.8 7.9 5.4 7.9 3.7 0 9.4-2.7 17.2-8.2V223c-6.9 4.5-12.5 7.5-16.7 9.1-4.2 1.6-8.6 2.4-13.1 2.4-13.1 0-20.8-5.1-23.1-15.4-12.9 10-26.7 15.1-41.3 15.1-10.7 0-19.6-3.5-26.8-10.6-7.1-7.1-10.7-16-10.7-26.7 0-9.7 3.5-18.4 10.5-26 7-7.6 16.9-13.7 29.7-18.2l39-13.4v-8.2c0-18.5-9.3-27.8-27.8-27.8-16.6 0-32.8 8.6-48.5 25.8V95.8c11.8-13.9 28.8-20.9 51.1-20.9 16.6 0 30 4.4 40 13.1 3.3 2.8 6.4 6.5 9 11.1 2.7 4.6 4.4 9.3 5.1 13.9.7 4.5 1 13.3 1 26.3zm-29.9 62.1v-45.7l-20.4 7.9c-10.4 4.1-17.7 8.3-22 12.5-4.3 4.2-6.4 9.4-6.4 15.7 0 6.4 2 11.6 6.1 15.6s9.3 6 15.8 6c9.6-.1 18.6-4.1 26.9-12zM374.9 0h30.5v233.8h-30.5V0zm100.2 79.8h36.2l-65.7 75.3 66.1 78.7h-40.9l-64.1-78.6 68.4-75.4zM645.5 79.8h39L621 155.7l67.9 78.1h-39.1l-48.3-55.2-45.7 55.2h-38.3l64.8-78-64.8-76h38.4l45.6 52.8 44-52.8z"/>
</svg>
